<svg xmlns="http://www.w3.org/2000/svg" viewBox="0 0 934.85 1006.72"><defs><style>.cls-1{fill:#202123;}</style></defs><g id="Layer_2" data-name="Layer 2"><g id="Layer_1-2" data-name="Layer 1"><path class="cls-1" d="M729.59,678c-19.8,4.3-40.69,8.13-62.51,11.43-55.38,8.38-116.74,13.39-181.46,14.18l-18-28.6,5.91-23.83c92.61-.37,177.77-9,245.64-23.19h.06C766.13,619.47,729.59,678,729.59,678Z"/><path class="cls-1" d="M609.36,593.78c21.49-11.86,46.43-26.62,74.32-44.76l-32.61-28.19s-68.18,44.92-137.9,72.52l1.07,6.76C547.8,599.05,579.76,596.88,609.36,593.78Z"/><path class="cls-1" d="M385.68,409.63,439,461.5s67.71-55.11,134.28-76.28l-3.58-70.78S454.46,315.49,385.68,409.63Z"/><path class="cls-1" d="M414.27,521.67l44.05,79.16c-111.28-.6-209.13-13.27-268.18-32.37-37.26-12.05-59.07-26.65-59.07-42.39,0-8.48,6.33-16.62,18-24.22a349.33,349.33,0,0,1-32.38-122q-.77-9.4-1-18.95c-.08-3-.12-6-.12-9.07,0-118,58-222.36,147.13-286.19l94.4,172.6-13.29,8.58a77.12,77.12,0,0,0-25.55,102.29L367.13,437l-22,24.77A28.69,28.69,0,0,0,341.65,495l.71,1.26a12,12,0,0,0,16,4.67l6.74-3.55,27.59-14.51Z"/><path class="cls-1" d="M819.28,351.86q0,3.83-.09,7.64-.2,9.87-1,19.61a349.39,349.39,0,0,1-32.82,123.54c10.9,7.36,16.8,15.24,16.8,23.42,0,15.44-21,29.78-57,41.69q-2.57.86-5.23,1.68L684.21,469.13,620.57,354.77l32.76-18.38a12,12,0,0,0,4.78-15.94l-.66-1.28A28.66,28.66,0,0,0,627.67,304l-32.61,4.95-51.79-93.06A77.12,77.12,0,0,0,434,188.58l-6.19,4L336.33,25.24A350.85,350.85,0,0,1,467.43,0C661.75,0,819.28,157.53,819.28,351.86Z"/><path class="cls-1" d="M829.25,459.44q-4.11,13.86-9.34,27.41c35.56,16.18,55.94,35,55.94,55.17,0,34.9-61.26,66-156.6,86h-.06q-20.18,4.23-42.3,7.77c-56.19,9-121.14,14.47-190.61,15.31q-6.34.09-12.73.11h-6.12C241.86,651.18,59,602.31,59,542c0-20.13,20.39-39,55.94-55.17q-5.22-13.55-9.34-27.41C39.6,485.24,0,518.21,0,554.14,0,614,109.68,665.55,268.2,689.48h0l199.44,317.23L571.91,840.86,485.62,703.6q6.08-.08,12.09-.2l5.94-.13h.18l5.9-.16,5.42-.16q3.78-.12,7.53-.27c2.14-.08,4.27-.16,6.4-.26q2.43-.09,4.83-.21l5.46-.26,5.69-.29,6-.34,4.16-.24,5.85-.37,3.86-.26.63,0,1.76-.12,1-.07,1.7-.12.89-.07c1.64-.11,3.28-.23,4.91-.36l.88-.06.44,0q7.74-.6,15.38-1.27l6.56-.6,3.34-.32q6.6-.63,13.1-1.33c2.59-.27,5.17-.56,7.73-.85,1.27-.14,2.53-.28,3.8-.44l3.52-.41,4.78-.58,5.22-.65.46-.06,5-.66,3.18-.42.18,0,3.35-.46,1.15-.16,5.22-.74.78-.11c2.4-.34,4.8-.7,7.18-1.06,21.82-3.3,42.71-7.13,62.51-11.43,123.87-26.9,205.26-72.33,205.26-123.85C934.85,518.21,895.25,485.24,829.25,459.44Z"/><rect class="cls-1" x="363.74" y="137.6" width="13" height="85.5" transform="translate(-41.13 199.78) rotate(-28.68)"/><rect class="cls-1" x="311.03" y="41.23" width="13" height="85.5" transform="translate(-1.35 162.67) rotate(-28.68)"/></g></g></svg>